<svg width="844" height="42" viewBox="0 0 844 42" fill="none" xmlns="http://www.w3.org/2000/svg">
<path d="M381.002 28H377.13V26.736H377.85V18.064H377.13V16.8H380.49C380.853 16.8 381.253 16.8587 381.69 16.976C382.138 17.0827 382.554 17.2587 382.938 17.504C383.322 17.7493 383.642 18.064 383.898 18.448C384.154 18.832 384.282 19.296 384.282 19.84C384.282 20.8107 383.994 21.584 383.418 22.16C382.842 22.7253 382.01 23.008 380.922 23.008H379.178V26.736H381.002V28ZM379.178 18.064V21.728H380.57C381.039 21.728 381.423 21.6693 381.722 21.552C382.031 21.424 382.277 21.2693 382.458 21.088C382.639 20.9067 382.767 20.704 382.842 20.48C382.917 20.256 382.954 20.0427 382.954 19.84C382.954 19.6053 382.89 19.3813 382.762 19.168C382.645 18.9547 382.485 18.7627 382.282 18.592C382.069 18.432 381.813 18.304 381.514 18.208C381.226 18.112 380.917 18.064 380.586 18.064H379.178ZM389.268 28H385.396V26.736H386.116V18.064H385.396V16.8H388.756C389.118 16.8 389.518 16.8587 389.956 16.976C390.404 17.0827 390.82 17.2587 391.204 17.504C391.588 17.7493 391.908 18.064 392.164 18.448C392.42 18.832 392.548 19.296 392.548 19.84C392.548 20.64 392.345 21.3067 391.94 21.84C391.545 22.3733 390.964 22.7253 390.196 22.896L391.988 26.736H393.492V28H391.156L388.804 22.992C388.654 22.992 388.537 22.9973 388.452 23.008C388.377 23.008 388.265 23.008 388.116 23.008H387.444V26.736H389.268V28ZM387.444 18.064V21.728H388.836C389.305 21.728 389.689 21.6693 389.988 21.552C390.297 21.424 390.542 21.2693 390.724 21.088C390.905 20.9067 391.033 20.704 391.108 20.48C391.182 20.256 391.22 20.0427 391.22 19.84C391.22 19.6053 391.156 19.3813 391.028 19.168C390.91 18.9547 390.75 18.7627 390.548 18.592C390.334 18.432 390.078 18.304 389.78 18.208C389.492 18.112 389.182 18.064 388.852 18.064H387.444ZM404.374 26.448C403.852 26.9707 403.238 27.3813 402.534 27.68C401.841 27.9787 401.105 28.128 400.326 28.128C399.537 28.128 398.796 27.9787 398.102 27.68C397.409 27.3813 396.806 26.9707 396.294 26.448C395.772 25.936 395.361 25.3333 395.062 24.64C394.764 23.9467 394.614 23.2053 394.614 22.416C394.614 21.6373 394.764 20.9013 395.062 20.208C395.361 19.504 395.772 18.8907 396.294 18.368C396.806 17.8453 397.409 17.4347 398.102 17.136C398.796 16.8267 399.537 16.672 400.326 16.672C401.105 16.672 401.841 16.8267 402.534 17.136C403.238 17.4347 403.852 17.8453 404.374 18.368C404.897 18.8907 405.308 19.504 405.606 20.208C405.916 20.9013 406.07 21.6373 406.07 22.416C406.07 23.2053 405.916 23.9467 405.606 24.64C405.308 25.3333 404.897 25.936 404.374 26.448ZM397.238 25.552C397.633 25.9573 398.097 26.2773 398.63 26.512C399.164 26.7467 399.734 26.864 400.342 26.864C400.95 26.864 401.521 26.7467 402.054 26.512C402.588 26.2773 403.057 25.9573 403.462 25.552C403.857 25.1573 404.166 24.6933 404.39 24.16C404.625 23.616 404.742 23.0347 404.742 22.416C404.742 21.7973 404.625 21.2213 404.39 20.688C404.166 20.144 403.857 19.6693 403.462 19.264C403.057 18.8587 402.588 18.5387 402.054 18.304C401.521 18.0693 400.95 17.952 400.342 17.952C399.734 17.952 399.164 18.0693 398.63 18.304C398.097 18.5387 397.633 18.8587 397.238 19.264C396.833 19.6693 396.513 20.144 396.278 20.688C396.054 21.2213 395.942 21.7973 395.942 22.416C395.942 23.0347 396.054 23.616 396.278 24.16C396.513 24.6933 396.833 25.1573 397.238 25.552ZM410.009 28H407.193V26.72H407.945V18.064H407.193V16.8H410.553C411.321 16.8 412.046 16.9333 412.729 17.2C413.411 17.456 414.009 17.8293 414.521 18.32C415.033 18.8107 415.438 19.4027 415.737 20.096C416.035 20.7787 416.185 21.552 416.185 22.416C416.185 23.0453 416.073 23.6907 415.849 24.352C415.635 25.0133 415.283 25.6107 414.793 26.144C414.302 26.688 413.662 27.136 412.873 27.488C412.094 27.8293 411.139 28 410.009 28ZM409.273 18.064V26.72H410.393C411.022 26.72 411.609 26.6187 412.153 26.416C412.697 26.2133 413.171 25.92 413.577 25.536C413.971 25.1627 414.281 24.7147 414.505 24.192C414.739 23.6587 414.857 23.0613 414.857 22.4C414.857 21.7387 414.739 21.1413 414.505 20.608C414.281 20.0747 413.971 19.616 413.577 19.232C413.171 18.8587 412.697 18.5707 412.153 18.368C411.609 18.1653 411.022 18.064 410.393 18.064H409.273ZM425.446 27.168C425.083 27.488 424.657 27.728 424.166 27.888C423.675 28.048 423.142 28.128 422.566 28.128C421.99 28.128 421.457 28.048 420.966 27.888C420.475 27.728 420.049 27.488 419.686 27.168C419.323 26.8587 419.041 26.4693 418.838 26C418.635 25.5307 418.534 24.992 418.534 24.384V18.064H417.302V16.8H421.174V18.064H419.862V24.336C419.862 24.7413 419.926 25.104 420.054 25.424C420.193 25.7333 420.385 25.9947 420.63 26.208C420.865 26.4213 421.147 26.5867 421.478 26.704C421.809 26.8107 422.171 26.864 422.566 26.864C422.961 26.864 423.323 26.8107 423.654 26.704C423.985 26.5867 424.273 26.4213 424.518 26.208C424.753 25.9947 424.939 25.7333 425.078 25.424C425.217 25.104 425.286 24.7413 425.286 24.336V18.064H423.974V16.8H427.846V18.064H426.614V24.384C426.614 24.992 426.507 25.5307 426.294 26C426.091 26.4693 425.809 26.8587 425.446 27.168ZM437.582 27.328C437.156 27.5733 436.697 27.7707 436.206 27.92C435.726 28.0587 435.214 28.128 434.67 28.128C433.881 28.128 433.14 27.9787 432.446 27.68C431.753 27.3813 431.15 26.9707 430.638 26.448C430.116 25.936 429.705 25.3333 429.406 24.64C429.108 23.9467 428.958 23.2053 428.958 22.416C428.958 21.6267 429.108 20.8853 429.406 20.192C429.705 19.488 430.116 18.8747 430.638 18.352C431.15 17.84 431.753 17.4347 432.446 17.136C433.14 16.8267 433.881 16.672 434.67 16.672C435.214 16.672 435.726 16.7413 436.206 16.88C436.697 17.0187 437.161 17.216 437.598 17.472V19.264H436.334V18.288C436.068 18.1707 435.796 18.0853 435.518 18.032C435.241 17.968 434.958 17.936 434.67 17.936C434.062 17.936 433.492 18.0533 432.958 18.288C432.436 18.5227 431.977 18.8427 431.582 19.248C431.177 19.664 430.857 20.144 430.622 20.688C430.398 21.232 430.286 21.808 430.286 22.416C430.286 23.024 430.398 23.6 430.622 24.144C430.857 24.688 431.177 25.1573 431.582 25.552C431.977 25.9573 432.436 26.2773 432.958 26.512C433.492 26.7467 434.062 26.864 434.67 26.864C435.065 26.864 435.444 26.816 435.806 26.72C436.18 26.6133 436.532 26.464 436.862 26.272L437.582 27.328ZM444.996 28H441.124V26.736H442.5V18.064H439.988V19.264H438.724V16.8H447.572V19.264H446.308V18.064H443.828V26.736H444.996V28ZM458.453 26.448C457.93 26.9707 457.317 27.3813 456.613 27.68C455.919 27.9787 455.183 28.128 454.405 28.128C453.615 28.128 452.874 27.9787 452.181 27.68C451.487 27.3813 450.885 26.9707 450.373 26.448C449.85 25.936 449.439 25.3333 449.141 24.64C448.842 23.9467 448.693 23.2053 448.693 22.416C448.693 21.6373 448.842 20.9013 449.141 20.208C449.439 19.504 449.85 18.8907 450.373 18.368C450.885 17.8453 451.487 17.4347 452.181 17.136C452.874 16.8267 453.615 16.672 454.405 16.672C455.183 16.672 455.919 16.8267 456.613 17.136C457.317 17.4347 457.93 17.8453 458.453 18.368C458.975 18.8907 459.386 19.504 459.685 20.208C459.994 20.9013 460.149 21.6373 460.149 22.416C460.149 23.2053 459.994 23.9467 459.685 24.64C459.386 25.3333 458.975 25.936 458.453 26.448ZM451.317 25.552C451.711 25.9573 452.175 26.2773 452.709 26.512C453.242 26.7467 453.813 26.864 454.421 26.864C455.029 26.864 455.599 26.7467 456.133 26.512C456.666 26.2773 457.135 25.9573 457.541 25.552C457.935 25.1573 458.245 24.6933 458.469 24.16C458.703 23.616 458.821 23.0347 458.821 22.416C458.821 21.7973 458.703 21.2213 458.469 20.688C458.245 20.144 457.935 19.6693 457.541 19.264C457.135 18.8587 456.666 18.5387 456.133 18.304C455.599 18.0693 455.029 17.952 454.421 17.952C453.813 17.952 453.242 18.0693 452.709 18.304C452.175 18.5387 451.711 18.8587 451.317 19.264C450.911 19.6693 450.591 20.144 450.357 20.688C450.133 21.2213 450.021 21.7973 450.021 22.416C450.021 23.0347 450.133 23.616 450.357 24.16C450.591 24.6933 450.911 25.1573 451.317 25.552ZM467.079 27.296C466.769 27.5627 466.412 27.7707 466.007 27.92C465.601 28.0587 465.175 28.128 464.727 28.128C464.321 28.128 463.927 28.0853 463.543 28C463.159 27.904 462.807 27.7813 462.487 27.632C462.167 27.4827 461.879 27.312 461.623 27.12C461.377 26.928 461.185 26.7253 461.047 26.512V24.656H462.311V26.08C462.588 26.2933 462.919 26.48 463.303 26.64C463.687 26.7893 464.119 26.864 464.599 26.864C464.876 26.864 465.143 26.8267 465.399 26.752C465.655 26.6667 465.884 26.5493 466.087 26.4C466.279 26.24 466.433 26.0427 466.551 25.808C466.668 25.5733 466.727 25.3013 466.727 24.992C466.727 24.8 466.711 24.608 466.679 24.416C466.657 24.224 466.604 24.0587 466.519 23.92C466.38 23.696 466.215 23.52 466.023 23.392C465.841 23.2533 465.628 23.1253 465.383 23.008C464.999 22.848 464.583 22.7093 464.135 22.592C463.687 22.4747 463.271 22.3147 462.887 22.112C462.492 21.9093 462.161 21.6267 461.895 21.264C461.639 20.9013 461.505 20.3893 461.495 19.728C461.484 19.376 461.532 19.024 461.639 18.672C461.745 18.32 461.921 18 462.167 17.712C462.412 17.424 462.737 17.1893 463.143 17.008C463.548 16.8267 464.044 16.736 464.631 16.736C464.823 16.736 465.031 16.7467 465.255 16.768C465.479 16.7893 465.713 16.832 465.959 16.896C466.204 16.96 466.455 17.056 466.711 17.184C466.977 17.312 467.239 17.4827 467.495 17.696V19.264H466.231V18.32C466.028 18.2347 465.793 18.16 465.527 18.096C465.26 18.032 464.967 18 464.647 18C464.327 18 464.049 18.0533 463.815 18.16C463.58 18.256 463.388 18.3893 463.239 18.56C463.1 18.72 462.993 18.9067 462.919 19.12C462.855 19.3227 462.823 19.5413 462.823 19.776C462.823 20.096 462.897 20.3573 463.047 20.56C463.196 20.752 463.393 20.9173 463.639 21.056C464.023 21.2587 464.481 21.44 465.015 21.6C465.548 21.7493 466.06 21.9413 466.551 22.176C466.999 22.3893 467.361 22.72 467.639 23.168C467.916 23.616 468.055 24.2293 468.055 25.008C468.055 25.488 467.964 25.92 467.783 26.304C467.612 26.688 467.377 27.0187 467.079 27.296Z" fill="white"/>
<path d="M0 2.44434L844 2.44425" stroke="#D7B474" stroke-width="4"/>
</svg>
