<svg width="26" height="26" viewBox="0 0 26 26" fill="none" xmlns="http://www.w3.org/2000/svg">
<path d="M12.5938 3.25C7.43387 3.25 3.25 7.43387 3.25 12.5938C3.25 17.7536 7.43387 21.9375 12.5938 21.9375C17.7536 21.9375 21.9375 17.7536 21.9375 12.5938C21.9375 7.43387 17.7536 3.25 12.5938 3.25Z" stroke="black" stroke-miterlimit="10"/>
<path d="M11.1719 11.1719H12.7969V17.0625" stroke="black" stroke-linecap="round" stroke-linejoin="round"/>
<path d="M10.5625 17.2656H15.0312" stroke="black" stroke-miterlimit="10" stroke-linecap="round"/>
<path d="M12.6047 8C12.4851 8 12.3682 8.03546 12.2687 8.1019C12.1693 8.16834 12.0918 8.26278 12.046 8.37326C12.0003 8.48375 11.9883 8.60532 12.0116 8.72261C12.0349 8.8399 12.0925 8.94764 12.1771 9.0322C12.2617 9.11677 12.3694 9.17435 12.4867 9.19768C12.604 9.22101 12.7256 9.20904 12.836 9.16328C12.9465 9.11751 13.041 9.04001 13.1074 8.94058C13.1738 8.84114 13.2093 8.72424 13.2093 8.60465C13.2093 8.44429 13.1456 8.29049 13.0322 8.1771C12.9188 8.0637 12.765 8 12.6047 8Z" fill="black"/>
</svg>
