<?xml version="1.0" encoding="UTF-8" standalone="no"?>
<!-- Created with Inkscape (http://www.inkscape.org/) -->

<svg
   width="30.00001mm"
   height="30.000004mm"
   viewBox="0 0 30.00001 30.000004"
   version="1.1"
   id="svg1"
   xml:space="preserve"
   inkscape:version="1.3 (0e150ed6c4, 2023-07-21)"
   sodipodi:docname="dibujo.svg"
   inkscape:export-filename="IPAE\Laboratorio\Majei\Imágenes\Majei1.png"
   inkscape:export-xdpi="96"
   inkscape:export-ydpi="96"
   xmlns:inkscape="http://www.inkscape.org/namespaces/inkscape"
   xmlns:sodipodi="http://sodipodi.sourceforge.net/DTD/sodipodi-0.dtd"
   xmlns="http://www.w3.org/2000/svg"
   xmlns:svg="http://www.w3.org/2000/svg"><sodipodi:namedview
     id="namedview1"
     pagecolor="#ffffff"
     bordercolor="#000000"
     borderopacity="0.25"
     inkscape:showpageshadow="2"
     inkscape:pageopacity="0.0"
     inkscape:pagecheckerboard="0"
     inkscape:deskcolor="#d1d1d1"
     inkscape:document-units="mm"
     showguides="false"
     inkscape:zoom="0.25000001"
     inkscape:cx="-651.99998"
     inkscape:cy="2409.9999"
     inkscape:window-width="1920"
     inkscape:window-height="1057"
     inkscape:window-x="-8"
     inkscape:window-y="-8"
     inkscape:window-maximized="1"
     inkscape:current-layer="layer1"
     inkscape:export-bgcolor="#ffffff00"
     showgrid="false"><inkscape:page
       x="1.1010516e-06"
       y="1.8641423e-06"
       width="30.00001"
       height="30.000004"
       id="page1"
       margin="0"
       bleed="0" /></sodipodi:namedview><defs
     id="defs1" /><g
     inkscape:label="Capa 1"
     inkscape:groupmode="layer"
     id="layer1"
     transform="translate(-167.21666,-78.756422)"><g
       id="g56-6-68-1"
       transform="matrix(0.37152009,0,0,0.38980299,-235.6226,114.02877)"
       inkscape:export-filename="IPAE\Laboratorio\g56-6.svg"
       inkscape:export-xdpi="96"
       inkscape:export-ydpi="96"><path
         d="m 1088.1809,-41.262509 c 0.2192,-0.61861 0.4776,-1.353904 0.8154,-2.366389 0.3912,-1.172679 0.8477,-2.587625 1.3383,-4.193632 0.2453,-0.803005 0.499,-1.65352 0.7571,-2.545731 0.2581,-0.89221 0.5211,-1.825209 0.784,-2.793876 0.2628,-0.968666 0.5254,-1.972424 0.785,-3.004797 0.2597,-1.032371 0.5166,-2.094044 0.765,-3.17737 0.2484,-1.083325 0.4888,-2.188935 0.7179,-3.310464 0.2291,-1.121529 0.4466,-2.259358 0.6484,-3.406338 0.2018,-1.146984 0.3879,-2.303053 0.5544,-3.462737 0.1664,-1.159684 0.3125,-2.322273 0.4356,-3.481909 0.062,-0.579818 0.1177,-1.158466 0.1669,-1.735881 0.049,-0.577415 0.092,-1.153437 0.1277,-1.726855 0.036,-0.573419 0.065,-1.144364 0.086,-1.712193 0.022,-0.567826 0.036,-1.132374 0.043,-1.693017 0.013,-1.121287 0.015,-2.17866 0.01,-3.175115 -0.01,-0.996455 -0.019,-1.932996 -0.041,-2.811921 -0.022,-0.878925 -0.051,-1.700338 -0.086,-2.469031 -0.035,-0.768696 -0.077,-1.484067 -0.1231,-2.149829 -2e-4,-0.0028 -9e-4,-0.005 0,-0.0079 l -11.6539,2e-6 0.011,50.462315 c 0,0 0.19,-0.1226 0.5196,-0.291006 0.1647,-0.08421 0.3646,-0.180027 0.5925,-0.27747 0.2278,-0.09746 0.4835,-0.197292 0.7615,-0.288748 0.278,-0.09145 0.5785,-0.175138 0.8937,-0.241377 0.3153,-0.06625 0.6459,-0.1147 0.9856,-0.136483 0.036,-0.0024 0.073,-5.74e-4 0.1086,-0.0022 z"
         style="fill:#000000;fill-opacity:1;stroke:none;stroke-width:0.99745"
         id="path49-7-5-6-0-2"
         sodipodi:nodetypes="cssssssssssssscsssscccssssssc" /><path
         d="m 1118.3278,-90.487489 c -0.052,0.369533 -0.1127,0.768176 -0.1892,1.210265 -0.082,0.470121 -0.179,0.981521 -0.2934,1.535108 -0.1145,0.553587 -0.2468,1.149253 -0.3999,1.787763 -0.153,0.63851 -0.3269,1.320038 -0.5241,2.044932 -0.1972,0.724893 -0.4172,1.493873 -0.6641,2.30661 -0.2469,0.812738 -0.521,1.669633 -0.8232,2.571674 -0.3022,0.902041 -0.6326,1.848441 -0.9956,2.841247 -0.363,0.992806 -0.7578,2.031432 -1.1872,3.116462 -0.4293,1.08503 -0.8941,2.216346 -1.3954,3.395061 -0.5013,1.178712 -1.0396,2.405439 -1.6184,3.679296 -0.5787,1.273858 -1.1973,2.59533 -1.8591,3.96579 -0.6618,1.37046 -1.308,2.662024 -1.9375,3.878942 -0.6295,1.216915 -1.243,2.358728 -1.839,3.431153 -0.596,1.072423 -1.1746,2.075707 -1.7359,3.012691 -0.5613,0.936984 -1.1053,1.808451 -1.6306,2.619047 -0.5254,0.810596 -1.0327,1.560337 -1.5209,2.253597 -0.4883,0.693261 -0.9568,1.330245 -1.4067,1.91522 -0.4499,0.584976 -0.881,1.117039 -1.2913,1.602784 -0.4103,0.485745 -0.8008,0.925237 -1.1703,1.320803 -0.3696,0.395565 -0.7185,0.748069 -1.0461,1.062507 -0.3276,0.314437 -0.6339,0.590048 -0.9184,0.832409 -0.2844,0.242362 -0.5461,0.451174 -0.7862,0.630511 -0.1328,0.09931 -0.2427,0.169375 -0.3617,0.251529 0.1526,0.174264 0.3019,0.349812 0.4278,0.524485 0.1574,0.218202 0.2954,0.434358 0.4155,0.640662 0.1201,0.206306 0.2223,0.402627 0.3103,0.583138 0.1759,0.361025 0.2918,0.656849 0.3684,0.831283 0.013,0.03071 0.036,0.05393 0.066,0.06993 0.03,0.01593 0.069,0.02434 0.1153,0.02595 0.093,0.0033 0.2173,-0.02117 0.3707,-0.07332 0.1535,-0.05221 0.3357,-0.131942 0.5443,-0.236863 0.2087,-0.104921 0.4437,-0.235375 0.7022,-0.390264 0.2586,-0.154882 0.5402,-0.334785 0.8433,-0.536894 0.3032,-0.202115 0.6275,-0.426784 0.9699,-0.673371 0.3425,-0.246588 0.7032,-0.514762 1.0797,-0.803084 0.3764,-0.288324 0.7685,-0.596456 1.1737,-0.923772 0.4051,-0.327316 0.8236,-0.674127 1.2521,-1.037692 0.4284,-0.363566 0.8672,-0.744389 1.3137,-1.141463 0.4465,-0.397072 0.9003,-0.809499 1.3596,-1.237335 0.4592,-0.427838 0.9243,-0.870582 1.391,-1.326442 0.4667,-0.45586 0.9356,-0.925387 1.4044,-1.406525 0.4688,-0.481139 0.9366,-0.97391 1.4022,-1.477585 0.4655,-0.503674 0.9283,-1.018407 1.3854,-1.541875 0.457,-0.52347 0.9085,-1.055498 1.3517,-1.596017 0.8116,-0.989689 1.5574,-1.921063 2.2455,-2.804026 0.6881,-0.882963 1.3189,-1.717765 1.8984,-2.513021 0.5794,-0.795256 1.1079,-1.55184 1.5937,-2.278412 0.4857,-0.726572 0.9282,-1.42329 1.3349,-2.1002 0.4068,-0.676909 0.7784,-1.333243 1.1211,-1.97951 0.3427,-0.646268 0.6574,-1.282831 0.9509,-1.917477 0.2934,-0.634647 0.5651,-1.267532 0.8242,-1.90958 0.2591,-0.642049 0.5053,-1.292993 0.7448,-1.961465 0.2698,-0.752882 0.5206,-1.498133 0.7537,-2.233294 0.2332,-0.735163 0.4482,-1.459983 0.6474,-2.173515 0.1991,-0.713533 0.3821,-1.415594 0.5499,-2.103585 0.1677,-0.687989 0.3201,-1.361579 0.4591,-2.020115 0.139,-0.658538 0.2646,-1.301326 0.3775,-1.9265 0.1129,-0.625172 0.213,-1.233705 0.3024,-1.821601 0.09,-0.587898 0.1688,-1.155334 0.2374,-1.702043 0.069,-0.546709 0.1265,-1.071847 0.177,-1.573458 0.101,-1.003219 0.1689,-1.912184 0.2129,-2.711535 0.044,-0.799353 0.064,-1.48976 0.073,-2.053955 0.01,-0.564194 0,-1.002756 0,-1.300499 -0.01,-0.297745 -0.015,-0.454554 -0.015,-0.454554 z"
         style="fill:#000000;fill-opacity:1;stroke:none;stroke-width:0.99745"
         id="path48-3-3-1-9-3" /><path
         d="m 1099.8363,-90.487489 c 0.01,0.0891 0.017,0.178237 0.025,0.267318 0.054,0.703918 0.099,1.407291 0.1344,2.108094 0.035,0.700804 0.062,1.398859 0.081,2.093433 0.019,0.694574 0.029,1.385643 0.033,2.070873 0,0.68523 0,1.364264 -0.013,2.037035 -0.011,0.672774 -0.028,1.339233 -0.052,1.996431 -0.046,1.314398 -0.1162,2.593643 -0.2026,3.827057 -0.087,1.233415 -0.1903,2.420941 -0.3047,3.548457 -0.1144,1.127516 -0.2396,2.195335 -0.3695,3.192033 -0.1299,0.996699 -0.2646,1.922455 -0.3976,2.763421 -0.1331,0.840964 -0.2638,1.597796 -0.3875,2.258109 -0.062,0.330155 -0.1537,0.714111 -0.2711,1.143718 -0.1174,0.429606 -0.2605,0.904757 -0.4255,1.417804 -0.1652,0.513046 -0.3519,1.064042 -0.5567,1.644517 -0.2048,0.580475 -0.4275,1.189711 -0.6641,1.821603 -0.4732,1.263782 -1.0028,2.614967 -1.5556,3.988348 -0.5528,1.373381 -1.1288,2.768813 -1.6978,4.123702 -0.5691,1.354887 -1.1312,2.66951 -1.6531,3.87781 -0.5219,1.208303 -1.0043,2.310293 -1.4156,3.243918 -0.5016,1.138579 -0.5974,1.345804 -0.8299,1.864464 0.1088,0.01746 0.2171,0.03139 0.3259,0.0564 0.176,0.04049 0.3526,0.09097 0.5275,0.153398 0.1775,0.06336 0.3477,0.133514 0.5107,0.208664 0.163,0.07517 0.319,0.155035 0.4681,0.240248 0.1491,0.08523 0.2909,0.176033 0.4267,0.269576 0.071,0.04909 0.1361,0.101254 0.204,0.152263 0.1155,-0.06954 0.2226,-0.130196 0.3561,-0.218817 0.2188,-0.145213 0.4612,-0.317553 0.7257,-0.521102 0.2646,-0.203556 0.5512,-0.438781 0.8579,-0.709467 0.3068,-0.270686 0.6335,-0.577142 0.9788,-0.923772 0.3454,-0.34663 0.7094,-0.733764 1.0898,-1.165149 0.3804,-0.431383 0.7775,-0.906392 1.1894,-1.431337 0.4118,-0.524948 0.8381,-1.099541 1.2778,-1.726858 0.4398,-0.627315 0.8934,-1.307562 1.3574,-2.046058 0.464,-0.738496 0.9387,-1.534977 1.4235,-2.393461 0.4847,-0.858484 0.9797,-1.779524 1.4817,-2.766805 0.5019,-0.987281 1.011,-2.041204 1.5265,-3.166089 0.2577,-0.562444 0.5167,-1.141896 0.7772,-1.740393 0.2605,-0.598495 0.5223,-1.215277 0.7851,-1.850927 0.2627,-0.635651 0.5272,-1.290944 0.7918,-1.964848 0.2646,-0.673906 0.5292,-1.366636 0.7952,-2.079898 0.2659,-0.713262 0.5209,-1.41347 0.7638,-2.1002 0.2428,-0.686729 0.4736,-1.360773 0.6943,-2.021245 0.4415,-1.320942 0.8398,-2.589203 1.1984,-3.806752 0.3585,-1.217549 0.6776,-2.38361 0.9609,-3.499957 0.2833,-1.116347 0.5313,-2.182596 0.747,-3.199928 0.2156,-1.017334 0.3987,-1.986157 0.5544,-2.906668 0.1558,-0.920511 0.2841,-1.793167 0.3875,-2.619047 0.1034,-0.825877 0.182,-1.604757 0.2408,-2.338191 0.059,-0.733434 0.097,-1.420923 0.1188,-2.064107 0.013,-0.396484 0.01,-0.744762 0.011,-1.107623 z"
         style="fill:#000000;fill-opacity:1;stroke:none;stroke-width:0.99745"
         id="path47-2-2-8-0-0" /><ellipse
         style="fill:#000000;fill-opacity:1;stroke:none;stroke-width:0.700364"
         id="path3-3-6-6-0-4"
         cx="1088.1302"
         cy="36.045372"
         transform="scale(1,-1)"
         rx="2.7448163"
         ry="2.7643604" /><path
         d="m 1092.5073,-13.525659 c 0,-0.107235 0,-0.202421 0,-0.316948 0,-0.271861 -9e-4,-0.564127 -0.01,-0.873016 0,-0.308888 -0.011,-0.634394 -0.025,-0.974528 -0.013,-0.340137 -0.031,-0.694651 -0.054,-1.060253 -0.023,-0.365599 -0.051,-0.742641 -0.086,-1.127926 -0.035,-0.385285 -0.077,-0.778369 -0.1265,-1.177555 -0.05,-0.399187 -0.1078,-0.804086 -0.1736,-1.211394 -0.066,-0.407308 -0.1407,-0.817535 -0.2252,-1.227183 -0.042,-0.204822 -0.086,-0.409269 -0.1332,-0.613593 -0.047,-0.20432 -0.098,-0.408234 -0.15,-0.611336 -0.053,-0.203097 -0.1077,-0.405667 -0.1658,-0.606826 -0.058,-0.201155 -0.1188,-0.401563 -0.1825,-0.600056 -0.064,-0.198492 -0.1305,-0.394803 -0.2005,-0.589906 -0.07,-0.195109 -0.1432,-0.388764 -0.2195,-0.579755 -0.076,-0.190983 -0.1558,-0.380064 -0.2385,-0.56622 -0.083,-0.18616 -0.169,-0.368701 -0.2587,-0.549299 -0.3587,-0.72239 -0.6683,-1.357157 -0.9352,-1.914092 -0.2669,-0.556935 -0.4912,-1.036433 -0.6798,-1.449386 -0.089,-0.195676 -0.1465,-0.330513 -0.2206,-0.497415 -0.13,-0.02604 -0.2596,-0.05555 -0.3875,-0.09137 -0.1446,-0.04047 -0.287,-0.08663 -0.4279,-0.137617 -0.1408,-0.05099 -0.2794,-0.106362 -0.4155,-0.165796 -0.1361,-0.05946 -0.2694,-0.122513 -0.3998,-0.188365 -0.1304,-0.06585 -0.2582,-0.135107 -0.3819,-0.20528 -0.1237,-0.07017 -0.2436,-0.141852 -0.3595,-0.214316 -0.1159,-0.07244 -0.2277,-0.145039 -0.3348,-0.217678 -0.2144,-0.145301 -0.4095,-0.289226 -0.5824,-0.422974 -0.173,-0.133754 -0.3234,-0.257516 -0.4469,-0.363192 -0.247,-0.211348 -0.3864,-0.349657 -0.3864,-0.349657 v 18.902927 z"
         style="fill:#000000;fill-opacity:1;stroke:none;stroke-width:0.99745"
         id="path42-9-0-0-4-9" /><path
         d="m 1094.2544,-33.575687 c 0,0 -0.047,0.05926 -0.1322,0.162413 -0.085,0.103175 -0.2093,0.250433 -0.3662,0.426356 -0.1569,0.175923 -0.3454,0.380678 -0.56,0.59893 -0.1073,0.109133 -0.2213,0.222117 -0.3404,0.336122 -0.1192,0.114001 -0.2437,0.228939 -0.373,0.344018 -0.1294,0.11507 -0.2632,0.229409 -0.4009,0.34176 -0.1379,0.112342 -0.28,0.222406 -0.4245,0.328228 -0.1445,0.105816 -0.2918,0.207922 -0.4413,0.303411 -0.1495,0.09549 -0.3008,0.184829 -0.4535,0.266192 -0.1528,0.08135 -0.306,0.154272 -0.4603,0.217678 -0.077,0.03171 -0.1546,0.06146 -0.2319,0.08798 -0.055,0.01877 -0.1098,0.03475 -0.1647,0.05075 0.1116,0.124019 0.2237,0.247718 0.3382,0.383495 0.1522,0.180398 0.3063,0.371672 0.4615,0.572986 0.1551,0.201308 0.3106,0.412632 0.4659,0.635025 0.1551,0.222392 0.31,0.455672 0.4625,0.699315 0.1526,0.24364 0.3032,0.498541 0.4502,0.763605 0.147,0.265064 0.2903,0.540113 0.429,0.82677 0.069,0.143336 0.1383,0.290005 0.205,0.438765 0.067,0.148749 0.1322,0.300342 0.1959,0.454554 0.064,0.154206 0.1255,0.31066 0.186,0.470344 0.06,0.159684 0.12,0.322084 0.177,0.487264 0.1138,0.330363 0.2219,0.670864 0.3259,1.01852 0.1041,0.347654 0.2031,0.702617 0.298,1.062507 0.095,0.359888 0.1853,0.724769 0.271,1.091833 0.086,0.367062 0.1671,0.736187 0.2441,1.105369 0.077,0.369179 0.1496,0.738002 0.2184,1.104239 0.069,0.366237 0.1342,0.730213 0.1949,1.088448 0.061,0.358238 0.117,0.710565 0.1701,1.055741 0.053,0.345177 0.1029,0.683563 0.1489,1.010623 0.092,0.654116 0.1692,1.266925 0.2341,1.818218 0.022,0.189805 0.035,0.324157 0.055,0.498544 h 6.1743 c 0,0 -0.1259,-0.335221 -0.345,-0.902343 -0.2191,-0.567121 -0.5313,-1.36704 -0.906,-2.296458 -0.1875,-0.464709 -0.3904,-0.961834 -0.6048,-1.478712 -0.2143,-0.516879 -0.4408,-1.052572 -0.6742,-1.596018 -0.2334,-0.543444 -0.4744,-1.094468 -0.719,-1.638876 -0.2446,-0.544409 -0.4925,-1.083016 -0.7403,-1.602784 -0.1239,-0.259886 -0.2449,-0.527967 -0.364,-0.803084 -0.1189,-0.275119 -0.2356,-0.556406 -0.3494,-0.842561 -0.1138,-0.286157 -0.2256,-0.577764 -0.3337,-0.870759 -0.1082,-0.292998 -0.2127,-0.587528 -0.3148,-0.883168 -0.102,-0.295641 -0.2022,-0.591336 -0.2979,-0.885423 -0.096,-0.294086 -0.1876,-0.586935 -0.2766,-0.875271 -0.1779,-0.576672 -0.342,-1.13746 -0.4905,-1.665948 -0.1487,-0.528488 -0.2815,-1.024088 -0.3976,-1.470817 -0.1162,-0.44673 -0.2152,-0.845032 -0.2957,-1.176427 -0.161,-0.66279 -0.2475,-1.061379 -0.2475,-1.061379 z"
         style="fill:#000000;fill-opacity:1;stroke:none;stroke-width:0.99745"
         id="path41-9-0-5-0-3" /><g
         id="g55-0-5-0"
         transform="matrix(2.1672402,0,0,2.1826716,54.689102,-236.59793)"><path
           d="m 483.64667,99.03734 c 0.0352,0.08347 0.0735,0.171275 0.10778,0.253331 0.13434,0.321634 0.26163,0.631106 0.37912,0.920279 0.23484,0.57835 0.43043,1.07617 0.56774,1.42907 0.13715,0.35259 0.21589,0.56051 0.21603,0.56088 h 27.42076 l -2.18963,-3.16356 z"
           style="stroke-width:0.551738"
           id="path55-7-73-6" /><path
           d="m 481.66664,94.45158 c 0.0315,0.08768 0.062,0.17576 0.0944,0.263038 0.0678,0.18231 0.13805,0.363627 0.20935,0.541701 0.0713,0.17806 0.1443,0.353218 0.2189,0.524419 0.0746,0.1712 0.15049,0.338074 0.22819,0.499795 0.15526,0.323428 0.3105,0.658462 0.46377,0.997223 0.0507,0.111985 0.0989,0.224576 0.14903,0.337143 h 29.3078 l -2.18963,-3.163319 z"
           style="stroke-width:0.551738"
           id="path54-3-2-3" /><path
           d="m 481.18403,93.002386 c -0.0118,0.0091 -0.0233,0.01771 -0.0351,0.02675 h 0.0429 c -0.003,-0.0092 -0.005,-0.01753 -0.008,-0.02675 z"
           style="stroke-width:0.551738"
           id="path53-1-8-5" /><path
           d="m 484.87013,89.865583 c -0.23431,0.220091 -0.46895,0.439868 -0.70437,0.652267 -0.30676,0.276761 -0.61357,0.546781 -0.91896,0.809002 -0.30538,0.26222 -0.60962,0.516967 -0.91014,0.76307 -0.30054,0.2461 -0.59767,0.483289 -0.88987,0.711693 -0.0893,0.06983 -0.17443,0.132704 -0.26276,0.200771 0.003,0.0092 0.005,0.01752 0.008,0.02675 h 31.1462 L 510.1486,89.86558 Z"
           style="stroke-width:0.551738"
           id="path52-0-7-2" /><path
           d="m 489.17761,85.279823 c -0.26957,0.317378 -0.53143,0.629165 -0.8336,0.969996 -0.45029,0.507901 -0.93822,1.043738 -1.46929,1.613031 -0.18342,0.196624 -0.37208,0.387821 -0.55939,0.580529 h 26.02277 l -2.18963,-3.163556 z"
           style="stroke-width:0.551738"
           id="path51-6-6-0" /><path
           d="m 492.48935,80.698561 c -0.0854,0.14958 -0.16182,0.297296 -0.25299,0.448419 -0.22428,0.371748 -0.46725,0.749195 -0.73345,1.138568 -0.26621,0.389375 -0.5558,0.790234 -0.87366,1.208175 -0.0893,0.117456 -0.19918,0.248101 -0.29305,0.368395 h 22.0019 l -2.18963,-3.163557 z"
           style="stroke-width:0.551738"
           id="path50-4-2-9" /><path
           d="m 494.52089,76.112801 c -0.0486,0.140631 -0.0909,0.277779 -0.14211,0.419772 -0.15255,0.422881 -0.31679,0.851571 -0.49334,1.284647 -0.15675,0.38452 -0.31783,0.759067 -0.48738,1.128387 -0.0511,0.111213 -0.10967,0.220323 -0.16238,0.330751 h 19.10266 l -2.18987,-3.163557 z"
           style="stroke-width:0.551738"
           id="path46-5-7-2" /><path
           d="m 495.76151,71.526805 c -0.0183,0.09313 -0.0326,0.180856 -0.052,0.275349 -0.0739,0.359613 -0.15613,0.729456 -0.24703,1.108263 -0.0909,0.378804 -0.19067,0.766259 -0.30044,1.162006 -0.0561,0.202103 -0.1225,0.411813 -0.18384,0.617938 h 17.36012 l -2.18987,-3.163556 z"
           style="stroke-width:0.551738"
           id="path45-6-3-9" /><path
           d="m 496.33306,66.941044 c -0.006,0.131196 -0.006,0.225594 -0.015,0.369343 -0.0288,0.459804 -0.0731,0.982684 -0.13925,1.559759 -0.0331,0.288538 -0.0709,0.590645 -0.11589,0.905125 -0.0151,0.105786 -0.0356,0.220852 -0.0522,0.32933 h 16.32766 l -2.18963,-3.163557 z"
           style="stroke-width:0.551738"
           id="path44-2-7-0" /></g></g></g></svg>
