<svg width="45" height="46" viewBox="0 0 45 46" fill="none" xmlns="http://www.w3.org/2000/svg">
<path d="M43.4271 10.1812C41.8828 10.8658 40.2489 11.3168 38.577 11.52C40.334 10.4703 41.6554 8.80271 42.2933 6.82997C40.632 7.82098 38.8176 8.51633 36.9277 8.88622C36.1318 8.0353 35.1747 7.35838 34.1144 6.89659C33.0542 6.4348 31.913 6.19779 30.7601 6.19997C26.0927 6.19997 22.3155 9.99746 22.3155 14.6787C22.3122 15.3299 22.3853 15.9791 22.5333 16.6125C19.1864 16.4524 15.9091 15.5814 12.9111 14.0551C9.91304 12.5288 7.2603 10.3809 5.12256 7.74872C4.37259 9.03857 3.97596 10.5103 3.97414 12.01C3.97414 14.95 5.47764 17.5487 7.7479 19.0712C6.40283 19.0386 5.08533 18.6755 3.90724 18.0125V18.1175C3.90724 22.23 6.82333 25.6512 10.6829 26.43C9.95708 26.6273 9.20917 26.7274 8.45805 26.7275C7.92507 26.7284 7.39331 26.6757 6.8705 26.57C7.94345 29.9387 11.0662 32.3887 14.7654 32.4587C11.7596 34.822 8.0692 36.0994 4.27432 36.09C3.60072 36.0889 2.92774 36.048 2.25879 35.9675C6.11933 38.4824 10.6069 39.8127 15.1874 39.8C30.7421 39.8 39.2399 26.8762 39.2399 15.6675C39.2399 15.3 39.2305 14.9325 39.2134 14.5737C40.8627 13.3768 42.2897 11.8893 43.4271 10.1812Z" fill="white"/>
</svg>
