<svg width="45" height="46" viewBox="0 0 45 46" fill="none" xmlns="http://www.w3.org/2000/svg">
<path fill-rule="evenodd" clip-rule="evenodd" d="M35.7705 9.09624C33.9944 7.2833 31.8842 5.84668 29.5616 4.86908C27.239 3.89147 24.7498 3.3922 22.2373 3.39999C11.6931 3.39999 3.1095 12.1132 3.10521 22.825C3.10054 26.2358 3.98183 29.5871 5.65936 32.5375L2.94482 42.6L13.0868 39.8989C15.8942 41.4505 19.0368 42.2625 22.2296 42.2614H22.2373C32.7807 42.2614 41.3634 33.5472 41.3686 22.8364C41.375 20.2819 40.8833 17.7516 39.9223 15.3927C38.9612 13.0338 37.5499 10.8935 35.7705 9.09624ZM22.2373 38.9827H22.2305C19.3842 38.9836 16.5896 38.2065 14.1375 36.7322L13.5568 36.3822L7.53852 37.9852L9.14494 32.0274L8.76671 31.4149C7.1752 28.8443 6.33199 25.8654 6.33521 22.825C6.33521 13.9236 13.4719 6.68124 22.2433 6.68124C26.4511 6.67358 30.4895 8.37133 33.4703 11.4011C36.4512 14.4309 38.1304 18.5445 38.1386 22.8372C38.1352 31.7395 31.0019 38.9827 22.2373 38.9827ZM30.959 26.8911C30.4813 26.6479 28.1287 25.4736 27.693 25.3117C27.2573 25.1499 26.9357 25.0685 26.6175 25.555C26.2993 26.0415 25.3824 27.13 25.1037 27.4581C24.8249 27.7862 24.5462 27.8221 24.0685 27.5789C23.5907 27.3356 22.0495 26.8237 20.2235 25.17C18.8023 23.8829 17.8435 22.2939 17.5647 21.8082C17.286 21.3226 17.5347 21.0592 17.774 20.8177C17.9893 20.5999 18.2517 20.2507 18.491 19.9672C18.7303 19.6837 18.8101 19.4807 18.9687 19.157C19.1274 18.8332 19.0485 18.5497 18.9293 18.3074C18.8101 18.065 17.8538 15.6754 17.4558 14.7032C17.0673 13.7565 16.6736 13.8851 16.3803 13.8702C16.1015 13.8562 15.7799 13.8527 15.4634 13.8527C15.2215 13.8592 14.9834 13.9164 14.7642 14.0209C14.5449 14.1254 14.349 14.2748 14.1889 14.46C13.7506 14.9465 12.5156 16.1225 12.5156 18.5095C12.5156 20.8965 14.2309 23.2065 14.4677 23.5302C14.7044 23.854 17.8383 28.7566 22.6336 30.8592C23.524 31.2483 24.4338 31.5894 25.3593 31.8812C26.5042 32.2505 27.5463 32.1989 28.3697 32.0737C29.2883 31.9346 31.2 30.8995 31.5971 29.7655C31.9942 28.6315 31.9951 27.6602 31.8759 27.4581C31.7566 27.256 31.4376 27.1335 30.959 26.8911Z" fill="white"/>
</svg>
