<svg width="47" height="46" viewBox="0 0 47 46" fill="none" xmlns="http://www.w3.org/2000/svg">
<path d="M23.4278 3.39996C12.4969 3.39996 3.63379 12.1762 3.63379 23C3.63379 31.0237 8.51161 37.9187 15.4837 40.955C15.4307 39.59 15.4749 37.945 15.8283 36.4575C16.2083 34.865 18.3733 25.7737 18.3733 25.7737C18.3733 25.7737 17.7371 24.5225 17.7371 22.6762C17.7371 19.7712 19.4337 17.6012 21.5545 17.6012C23.3572 17.6012 24.2231 18.94 24.2231 20.5412C24.2231 22.335 23.0655 25.0125 22.4735 27.4975C21.9786 29.58 23.5251 31.2687 25.6017 31.2687C29.3484 31.2687 31.8757 26.5 31.8757 20.8475C31.8757 16.5512 28.9507 13.34 23.6399 13.34C17.6399 13.34 13.8931 17.7762 13.8931 22.7287C13.8931 24.435 14.4056 25.6425 15.2009 26.57C15.5632 26.9987 15.6163 27.1737 15.4837 27.6637C15.3865 28.0225 15.1744 28.8887 15.0772 29.2387C14.9447 29.7375 14.5382 29.9125 14.0875 29.7287C11.3217 28.6087 10.0315 25.6162 10.0315 22.2387C10.0315 16.6737 14.7768 9.99746 24.179 9.99746C31.7343 9.99746 36.7093 15.4137 36.7093 21.2237C36.7093 28.915 32.3882 34.655 26.0258 34.655C23.8874 34.655 21.8814 33.5087 21.1922 32.2137C21.1922 32.2137 20.0434 36.7287 19.796 37.6037C19.3807 39.1175 18.5589 40.6225 17.8077 41.8037C19.6298 42.3359 21.5194 42.607 23.419 42.6087C34.3499 42.6087 43.2131 33.8325 43.2131 23.0087C43.2131 12.185 34.3588 3.39996 23.4278 3.39996Z" fill="white"/>
</svg>
