<svg width="46" height="46" viewBox="0 0 46 46" fill="none" xmlns="http://www.w3.org/2000/svg">
<path d="M31.4925 6.66634C33.678 6.6728 35.7721 7.53535 37.3176 9.06561C38.863 10.5959 39.7341 12.6695 39.7406 14.8336V31.1663C39.7341 33.3304 38.863 35.4041 37.3176 36.9343C35.7721 38.4646 33.678 39.3271 31.4925 39.3336H14.998C12.8125 39.3271 10.7183 38.4646 9.17291 36.9343C7.62751 35.4041 6.75641 33.3304 6.74989 31.1663V14.8336C6.75641 12.6695 7.62751 10.5959 9.17291 9.06561C10.7183 7.53535 12.8125 6.6728 14.998 6.66634H31.4925ZM31.4925 3.39996H14.998C8.64711 3.39996 3.45117 8.54496 3.45117 14.8336V31.1663C3.45117 37.455 8.64711 42.6 14.998 42.6H31.4925C37.8434 42.6 43.0393 37.455 43.0393 31.1663V14.8336C43.0393 8.54496 37.8434 3.39996 31.4925 3.39996Z" fill="white"/>
<path d="M33.9667 14.8336C33.4773 14.8336 32.9989 14.6899 32.592 14.4207C32.1852 14.1515 31.868 13.7688 31.6808 13.3212C31.4935 12.8735 31.4445 12.3809 31.54 11.9056C31.6354 11.4304 31.8711 10.9938 32.2171 10.6512C32.5631 10.3085 33.004 10.0752 33.484 9.98067C33.9639 9.88614 34.4614 9.93466 34.9135 10.1201C35.3656 10.3055 35.7521 10.6195 36.0239 11.0224C36.2958 11.4253 36.4409 11.899 36.4409 12.3836C36.4416 12.7055 36.3781 13.0244 36.254 13.322C36.1299 13.6195 35.9477 13.8899 35.7178 14.1175C35.4879 14.3452 35.2149 14.5256 34.9144 14.6485C34.6138 14.7714 34.2918 14.8343 33.9667 14.8336ZM23.2452 16.4663C24.5502 16.4663 25.8259 16.8495 26.911 17.5675C27.9961 18.2854 28.8418 19.3058 29.3412 20.4997C29.8406 21.6935 29.9713 23.0072 29.7167 24.2746C29.4621 25.542 28.8337 26.7062 27.9109 27.6199C26.9881 28.5337 25.8124 29.156 24.5324 29.4081C23.2525 29.6602 21.9258 29.5308 20.7201 29.0363C19.5144 28.5417 18.4839 27.7043 17.7589 26.6299C17.0338 25.5554 16.6469 24.2922 16.6469 23C16.6487 21.2677 17.3445 19.6069 18.5815 18.382C19.8186 17.1572 21.4958 16.4682 23.2452 16.4663ZM23.2452 13.2C21.2877 13.2 19.3742 13.7747 17.7467 14.8516C16.1191 15.9284 14.8506 17.459 14.1015 19.2497C13.3524 21.0404 13.1564 23.0108 13.5383 24.9119C13.9202 26.8129 14.8628 28.5591 16.2469 29.9296C17.631 31.3002 19.3945 32.2335 21.3144 32.6117C23.2342 32.9898 25.2242 32.7957 27.0326 32.054C28.8411 31.3123 30.3868 30.0562 31.4743 28.4446C32.5618 26.833 33.1422 24.9382 33.1422 23C33.1422 20.4008 32.0995 17.9082 30.2434 16.0703C28.3874 14.2325 25.87 13.2 23.2452 13.2Z" fill="white"/>
</svg>
