<svg width="29" height="32" viewBox="0 0 29 32" fill="none" xmlns="http://www.w3.org/2000/svg">
<path d="M26.9253 27.5908H26.2665C26.2083 27.5908 26.1524 27.5654 26.1112 27.5201C26.0701 27.4748 26.0469 27.4134 26.0469 27.3493V17.057C26.0474 17.0185 26.0396 16.9806 26.024 16.9461C26.0085 16.9117 25.9857 16.8819 25.9576 16.8591C25.9295 16.8363 25.8968 16.8212 25.8623 16.8151C25.8278 16.809 25.7925 16.812 25.7593 16.8239C25.2555 16.998 24.7324 17.0951 24.2046 17.1125C24.1398 17.1125 24.0784 17.1155 24.018 17.1155C23.0028 17.1182 22.0039 16.8347 21.1167 16.2921C21.0496 16.251 20.974 16.2295 20.8971 16.2295C20.8203 16.2295 20.7447 16.251 20.6776 16.2921C19.7905 16.8347 18.7919 17.1182 17.7769 17.1155C16.7675 17.1171 15.7752 16.8302 14.897 16.283C14.8293 16.2409 14.7528 16.2187 14.675 16.2187C14.5971 16.2187 14.5206 16.2409 14.4529 16.283C13.5616 16.8323 12.5564 17.1192 11.5347 17.1161C10.5186 17.1169 9.51994 16.8255 8.63781 16.271C8.56955 16.2282 8.49236 16.2058 8.41383 16.2058C8.3353 16.2058 8.25811 16.2282 8.18986 16.271C7.30772 16.8255 6.3091 17.1169 5.293 17.1161C5.23317 17.1161 5.17278 17.1161 5.108 17.1131H5.10471C4.55838 17.0951 4.01717 16.9916 3.49736 16.8058C3.46444 16.7941 3.42948 16.7912 3.39531 16.7971C3.36115 16.8031 3.32875 16.8179 3.30077 16.8403C3.27278 16.8626 3.24999 16.8919 3.23426 16.9258C3.21853 16.9597 3.21031 16.9972 3.21025 17.0352V27.3493C3.21025 27.4134 3.18712 27.4748 3.14594 27.5201C3.10476 27.5654 3.04891 27.5908 2.99067 27.5908H2.35937C1.88507 27.5908 1.47555 27.9917 1.45469 28.5133C1.44935 28.6436 1.46808 28.7738 1.50975 28.896C1.55143 29.0181 1.61518 29.1298 1.69716 29.2241C1.77914 29.3184 1.87766 29.3935 1.98675 29.4448C2.09585 29.4961 2.21327 29.5226 2.33192 29.5226H26.8978C27.3721 29.5226 27.7816 29.1218 27.8025 28.6002C27.8078 28.4698 27.7891 28.3396 27.7474 28.2175C27.7057 28.0953 27.642 27.9837 27.56 27.8893C27.478 27.795 27.3795 27.7199 27.2704 27.6686C27.1613 27.6173 27.0439 27.5908 26.9253 27.5908ZM12.8719 23.4857C12.8719 23.5497 12.8488 23.6112 12.8076 23.6564C12.7664 23.7017 12.7106 23.7272 12.6523 23.7272H7.82151C7.76327 23.7272 7.70742 23.7017 7.66624 23.6564C7.62506 23.6112 7.60192 23.5497 7.60192 23.4857V19.6221C7.60192 19.4299 7.67133 19.2457 7.79487 19.1098C7.91841 18.974 8.08596 18.8976 8.26067 18.8976H12.2132C12.3879 18.8976 12.5554 18.974 12.679 19.1098C12.8025 19.2457 12.8719 19.4299 12.8719 19.6221V23.4857ZM21.4357 27.5908H17.4832C17.4249 27.5908 17.3691 27.5654 17.3279 27.5201C17.2867 27.4748 17.2636 27.4134 17.2636 27.3493V19.6221C17.2636 19.4299 17.333 19.2457 17.4565 19.1098C17.5801 18.974 17.7476 18.8976 17.9223 18.8976H20.9965C21.1712 18.8976 21.3388 18.974 21.4623 19.1098C21.5859 19.2457 21.6553 19.4299 21.6553 19.6221V27.3493C21.6553 27.4134 21.6321 27.4748 21.5909 27.5201C21.5498 27.5654 21.4939 27.5908 21.4357 27.5908ZM27.6153 10.825L25.2592 4.87927C24.6421 3.42014 23.233 2.47717 21.669 2.47717H7.58545C6.02147 2.47717 4.61229 3.42014 3.99527 4.87927L1.63914 10.825C1.14507 11.9968 1.79779 13.2 1.79833 13.2006L1.8137 13.2277C1.8406 13.2748 1.88836 13.3485 1.91746 13.3956C1.9202 13.3992 1.9224 13.4034 1.92514 13.4076L2.19962 13.7729C2.20989 13.7867 2.22088 13.7998 2.23256 13.8121L2.50704 14.1037L2.5301 14.1254C2.69129 14.2774 2.86371 14.4143 3.04557 14.5347V14.5378C3.643 14.9357 4.32366 15.1576 5.02182 15.1819H5.15741C6.21376 15.1841 7.23161 14.7459 8.00595 13.9558L8.02407 13.9371C8.10494 13.8533 8.21186 13.8066 8.32298 13.8066C8.43409 13.8066 8.54101 13.8533 8.62189 13.9371L8.64 13.9558C9.4226 14.7446 10.4456 15.1822 11.5072 15.1822C12.5688 15.1822 13.5918 14.7446 14.3744 13.9558C14.4556 13.8731 14.5622 13.8272 14.6728 13.8272C14.7834 13.8272 14.89 13.8731 14.9711 13.9558C15.7514 14.7421 16.7707 15.1794 17.829 15.182C18.8874 15.1846 19.9084 14.7522 20.6918 13.9697C20.7718 13.8882 20.8768 13.843 20.9858 13.843C21.0948 13.843 21.1998 13.8882 21.2798 13.9697C22.064 14.757 23.0895 15.1899 24.1514 15.1819H24.2881C24.9687 15.154 25.6309 14.9313 26.2094 14.5359C26.2616 14.5015 26.3115 14.4653 26.362 14.4291C26.7522 14.1398 27.0917 13.7756 27.3644 13.3539L27.4599 13.1951C27.4695 13.179 27.4782 13.1621 27.4863 13.1444C27.5774 12.9404 28.066 11.8912 27.6153 10.825Z" fill="white"/>
</svg>
